<?xml version="1.0" encoding="UTF-8" standalone="no"?>
<!DOCTYPE svg PUBLIC "-//W3C//DTD SVG 1.1//EN"
 "http://www.w3.org/Graphics/SVG/1.1/DTD/svg11.dtd">
<!-- Generated by graphviz version 2.38.0 (20140413.2041)
 -->
<!-- Title: classes_No_Name Pages: 1 -->
<svg width="232pt" height="304pt"
 viewBox="0.00 0.00 231.50 304.00" xmlns="http://www.w3.org/2000/svg" xmlns:xlink="http://www.w3.org/1999/xlink">
<g id="graph0" class="graph" transform="scale(1 1) rotate(0) translate(4 300)">
<title>classes_No_Name</title>
<polygon fill="white" stroke="none" points="-4,4 -4,-300 227.5,-300 227.5,4 -4,4"/>
<!-- 0 -->
<g id="node1" class="node"><title>0</title>
<polygon fill="none" stroke="black" points="0,-0.5 0,-144.5 113,-144.5 113,-0.5 0,-0.5"/>
<text text-anchor="middle" x="56.5" y="-129.3" font-family="Times,serif" font-size="14.00">FizzbuzzNetwork</text>
<polyline fill="none" stroke="black" points="0,-121.5 113,-121.5 "/>
<text text-anchor="start" x="8" y="-106.3" font-family="Times,serif" font-size="14.00">buzz</text>
<text text-anchor="start" x="8" y="-91.3" font-family="Times,serif" font-size="14.00">fizz</text>
<text text-anchor="start" x="8" y="-76.3" font-family="Times,serif" font-size="14.00">fizzbuzz</text>
<text text-anchor="start" x="8" y="-61.3" font-family="Times,serif" font-size="14.00">numbers</text>
<polyline fill="none" stroke="black" points="0,-53.5 113,-53.5 "/>
<text text-anchor="start" x="8" y="-38.3" font-family="Times,serif" font-size="14.00">ask()</text>
<text text-anchor="start" x="8" y="-23.3" font-family="Times,serif" font-size="14.00">encode_input()</text>
<text text-anchor="start" x="8" y="-8.3" font-family="Times,serif" font-size="14.00">train_rounds()</text>
</g>
<!-- 1 -->
<g id="node2" class="node"><title>1</title>
<polygon fill="none" stroke="black" points="6,-181.5 6,-295.5 107,-295.5 107,-181.5 6,-181.5"/>
<text text-anchor="middle" x="56.5" y="-280.3" font-family="Times,serif" font-size="14.00">NeuralNetwork</text>
<polyline fill="none" stroke="black" points="6,-272.5 107,-272.5 "/>
<text text-anchor="start" x="14" y="-257.3" font-family="Times,serif" font-size="14.00">ptrons : list</text>
<polyline fill="none" stroke="black" points="6,-249.5 107,-249.5 "/>
<text text-anchor="start" x="14" y="-234.3" font-family="Times,serif" font-size="14.00">ask()</text>
<text text-anchor="start" x="14" y="-219.3" font-family="Times,serif" font-size="14.00">num_inputs()</text>
<text text-anchor="start" x="14" y="-204.3" font-family="Times,serif" font-size="14.00">num_outputs()</text>
<text text-anchor="start" x="14" y="-189.3" font-family="Times,serif" font-size="14.00">train()</text>
</g>
<!-- 0&#45;&gt;1 -->
<g id="edge1" class="edge"><title>0&#45;&gt;1</title>
<path fill="none" stroke="black" d="M56.5,-144.956C56.5,-153.547 56.5,-162.295 56.5,-170.815"/>
<polygon fill="none" stroke="black" points="53.0001,-171.068 56.5,-181.068 60.0001,-171.068 53.0001,-171.068"/>
</g>
<!-- 2 -->
<g id="node3" class="node"><title>2</title>
<polygon fill="none" stroke="black" points="131.5,-15.5 131.5,-129.5 223.5,-129.5 223.5,-15.5 131.5,-15.5"/>
<text text-anchor="middle" x="177.5" y="-114.3" font-family="Times,serif" font-size="14.00">Perceptron</text>
<polyline fill="none" stroke="black" points="131.5,-106.5 223.5,-106.5 "/>
<text text-anchor="start" x="139.5" y="-91.3" font-family="Times,serif" font-size="14.00">c : float</text>
<text text-anchor="start" x="139.5" y="-76.3" font-family="Times,serif" font-size="14.00">weights</text>
<polyline fill="none" stroke="black" points="131.5,-68.5 223.5,-68.5 "/>
<text text-anchor="start" x="139.5" y="-53.3" font-family="Times,serif" font-size="14.00">activate()</text>
<text text-anchor="start" x="139.5" y="-38.3" font-family="Times,serif" font-size="14.00">feedforward()</text>
<text text-anchor="start" x="139.5" y="-23.3" font-family="Times,serif" font-size="14.00">train()</text>
</g>
</g>
</svg>
