<?xml version="1.0" encoding="UTF-8" standalone="no"?>
<!DOCTYPE svg PUBLIC "-//W3C//DTD SVG 1.1//EN"
 "http://www.w3.org/Graphics/SVG/1.1/DTD/svg11.dtd">
<!-- Generated by graphviz version 2.38.0 (20140413.2041)
 -->
<!-- Title: classes_No_Name Pages: 1 -->
<svg width="386pt" height="138pt"
 viewBox="0.00 0.00 385.50 138.00" xmlns="http://www.w3.org/2000/svg" xmlns:xlink="http://www.w3.org/1999/xlink">
<g id="graph0" class="graph" transform="scale(1 1) rotate(0) translate(4 134)">
<title>classes_No_Name</title>
<polygon fill="white" stroke="none" points="-4,4 -4,-134 381.5,-134 381.5,4 -4,4"/>
<!-- 0 -->
<g id="node1" class="node"><title>0</title>
<polygon fill="none" stroke="black" points="0,-0.5 0,-129.5 140,-129.5 140,-0.5 0,-0.5"/>
<text text-anchor="middle" x="70" y="-114.3" font-family="Times,serif" font-size="14.00">FizzBuzzController</text>
<polyline fill="none" stroke="black" points="0,-106.5 140,-106.5 "/>
<text text-anchor="start" x="8" y="-91.3" font-family="Times,serif" font-size="14.00">model</text>
<text text-anchor="start" x="8" y="-76.3" font-family="Times,serif" font-size="14.00">view</text>
<polyline fill="none" stroke="black" points="0,-68.5 140,-68.5 "/>
<text text-anchor="start" x="8" y="-53.3" font-family="Times,serif" font-size="14.00">add_value_to_model()</text>
<text text-anchor="start" x="8" y="-38.3" font-family="Times,serif" font-size="14.00">model_changed()</text>
<text text-anchor="start" x="8" y="-23.3" font-family="Times,serif" font-size="14.00">notify_view()</text>
<text text-anchor="start" x="8" y="-8.3" font-family="Times,serif" font-size="14.00">show_view()</text>
</g>
<!-- 1 -->
<g id="node2" class="node"><title>1</title>
<polygon fill="none" stroke="black" points="158,-15.5 158,-114.5 262,-114.5 262,-15.5 158,-15.5"/>
<text text-anchor="middle" x="210" y="-99.3" font-family="Times,serif" font-size="14.00">FizzBuzzModel</text>
<polyline fill="none" stroke="black" points="158,-91.5 262,-91.5 "/>
<text text-anchor="start" x="166" y="-76.3" font-family="Times,serif" font-size="14.00">observers : list</text>
<text text-anchor="start" x="166" y="-61.3" font-family="Times,serif" font-size="14.00">results : dict</text>
<polyline fill="none" stroke="black" points="158,-53.5 262,-53.5 "/>
<text text-anchor="start" x="166" y="-38.3" font-family="Times,serif" font-size="14.00">add_observer()</text>
<text text-anchor="start" x="166" y="-23.3" font-family="Times,serif" font-size="14.00">add_value()</text>
</g>
<!-- 2 -->
<g id="node3" class="node"><title>2</title>
<polygon fill="none" stroke="black" points="280.5,-30.5 280.5,-99.5 377.5,-99.5 377.5,-30.5 280.5,-30.5"/>
<text text-anchor="middle" x="329" y="-84.3" font-family="Times,serif" font-size="14.00">FizzBuzzView</text>
<polyline fill="none" stroke="black" points="280.5,-76.5 377.5,-76.5 "/>
<text text-anchor="start" x="288.5" y="-61.3" font-family="Times,serif" font-size="14.00">model</text>
<polyline fill="none" stroke="black" points="280.5,-53.5 377.5,-53.5 "/>
<text text-anchor="start" x="288.5" y="-38.3" font-family="Times,serif" font-size="14.00">show()</text>
</g>
</g>
</svg>
