<?xml version="1.0" encoding="UTF-8" standalone="no"?>
<!DOCTYPE svg PUBLIC "-//W3C//DTD SVG 1.1//EN"
 "http://www.w3.org/Graphics/SVG/1.1/DTD/svg11.dtd">
<!-- Generated by graphviz version 2.38.0 (20140413.2041)
 -->
<!-- Title: classes_No_Name Pages: 1 -->
<svg width="124pt" height="349pt"
 viewBox="0.00 0.00 124.00 349.00" xmlns="http://www.w3.org/2000/svg" xmlns:xlink="http://www.w3.org/1999/xlink">
<g id="graph0" class="graph" transform="scale(1 1) rotate(0) translate(4 345)">
<title>classes_No_Name</title>
<polygon fill="white" stroke="none" points="-4,4 -4,-345 120,-345 120,4 -4,4"/>
<!-- 0 -->
<g id="node1" class="node"><title>0</title>
<polygon fill="none" stroke="black" points="12,-0.5 12,-144.5 104,-144.5 104,-0.5 12,-0.5"/>
<text text-anchor="middle" x="58" y="-129.3" font-family="Times,serif" font-size="14.00">Ball</text>
<polyline fill="none" stroke="black" points="12,-121.5 104,-121.5 "/>
<text text-anchor="start" x="20" y="-106.3" font-family="Times,serif" font-size="14.00">image</text>
<text text-anchor="start" x="20" y="-91.3" font-family="Times,serif" font-size="14.00">rect</text>
<text text-anchor="start" x="20" y="-76.3" font-family="Times,serif" font-size="14.00">screen_height</text>
<text text-anchor="start" x="20" y="-61.3" font-family="Times,serif" font-size="14.00">screen_width</text>
<text text-anchor="start" x="20" y="-46.3" font-family="Times,serif" font-size="14.00">speed : list</text>
<polyline fill="none" stroke="black" points="12,-38.5 104,-38.5 "/>
<text text-anchor="start" x="20" y="-23.3" font-family="Times,serif" font-size="14.00">is_clicked()</text>
<text text-anchor="start" x="20" y="-8.3" font-family="Times,serif" font-size="14.00">update()</text>
</g>
<!-- 1 -->
<g id="node2" class="node"><title>1</title>
<polygon fill="none" stroke="black" points="-7.10543e-15,-196.5 -7.10543e-15,-340.5 116,-340.5 116,-196.5 -7.10543e-15,-196.5"/>
<text text-anchor="middle" x="58" y="-325.3" font-family="Times,serif" font-size="14.00">FizzBuzzGame</text>
<polyline fill="none" stroke="black" points="-7.10543e-15,-317.5 116,-317.5 "/>
<text text-anchor="start" x="8" y="-302.3" font-family="Times,serif" font-size="14.00">ball</text>
<text text-anchor="start" x="8" y="-287.3" font-family="Times,serif" font-size="14.00">font</text>
<text text-anchor="start" x="8" y="-272.3" font-family="Times,serif" font-size="14.00">height</text>
<text text-anchor="start" x="8" y="-257.3" font-family="Times,serif" font-size="14.00">screen</text>
<text text-anchor="start" x="8" y="-242.3" font-family="Times,serif" font-size="14.00">width</text>
<polyline fill="none" stroke="black" points="-7.10543e-15,-234.5 116,-234.5 "/>
<text text-anchor="start" x="8" y="-219.3" font-family="Times,serif" font-size="14.00">fizzbuzz()</text>
<text text-anchor="start" x="8" y="-204.3" font-family="Times,serif" font-size="14.00">start_game_loop()</text>
</g>
<!-- 0&#45;&gt;1 -->
<g id="edge1" class="edge"><title>0&#45;&gt;1</title>
<path fill="none" stroke="black" d="M58,-144.637C58,-157.553 58,-171.129 58,-184.354"/>
<polygon fill="black" stroke="black" points="58.0001,-184.372 62,-190.372 58,-196.372 54,-190.372 58.0001,-184.372"/>
<text text-anchor="middle" x="68.5" y="-166.8" font-family="Times,serif" font-size="14.00" fill="green">ball</text>
</g>
</g>
</svg>
